<svg id="Capa_1" enable-background="new 0 0 512 512" height="512" viewBox="0 0 512 512" width="512" xmlns="http://www.w3.org/2000/svg" xmlns:xlink="http://www.w3.org/1999/xlink"><linearGradient id="lg1"><stop offset="0" stop-color="#364aff"/><stop offset="1" stop-color="#fc54ff"/></linearGradient><linearGradient id="SVGID_1_" gradientUnits="userSpaceOnUse" x1="74.981" x2="437.02" xlink:href="#lg1" y1="437.019" y2="74.98"/><radialGradient id="SVGID_2_" cx="252.958" cy="218.479" gradientUnits="userSpaceOnUse" r="297.405"><stop offset=".095" stop-color="#8d00db" stop-opacity=".66"/><stop offset=".2822" stop-color="#9f0de1" stop-opacity=".523"/><stop offset=".6541" stop-color="#cc30f0" stop-opacity=".252"/><stop offset="1" stop-color="#fc54ff" stop-opacity="0"/></radialGradient><linearGradient id="lg2"><stop offset="0" stop-color="#fc54ff"/><stop offset=".4062" stop-color="#fd9bff"/><stop offset="1" stop-color="#fff"/></linearGradient><linearGradient id="SVGID_3_" gradientUnits="userSpaceOnUse" x1="-48.94" x2="473.357" xlink:href="#lg2" y1="486.099" y2="-36.199"/><linearGradient id="SVGID_4_" gradientUnits="userSpaceOnUse" x1="95.778" x2="675.663" xlink:href="#lg2" y1="605.298" y2="25.413"/><linearGradient id="SVGID_5_" gradientUnits="userSpaceOnUse" x1="114.571" x2="339.934" xlink:href="#lg1" y1="393.702" y2="168.339"/><linearGradient id="SVGID_6_" gradientUnits="userSpaceOnUse" x1="123.055" x2="316.077" xlink:href="#lg1" y1="419.05" y2="226.028"/><linearGradient id="SVGID_7_" gradientUnits="userSpaceOnUse" x1="1.895" x2="714.252" xlink:href="#lg2" y1="514.66" y2="-197.696"/><linearGradient id="SVGID_8_" gradientUnits="userSpaceOnUse" x1="166.284" x2="421.437" xlink:href="#lg2" y1="293.652" y2="38.499"/><linearGradient id="SVGID_9_" gradientUnits="userSpaceOnUse" x1="183.141" x2="405.02" xlink:href="#lg2" y1="233.411" y2="11.531"/><linearGradient id="SVGID_10_" gradientUnits="userSpaceOnUse" x1="45.561" x2="244.731" y1="288.735" y2="89.564"><stop offset="0" stop-color="#fc54ff"/><stop offset="1" stop-color="#fda0ff"/></linearGradient><linearGradient id="SVGID_11_" gradientUnits="userSpaceOnUse" x1="-167.429" x2="246.618" xlink:href="#lg2" y1="501.725" y2="87.678"/><linearGradient id="SVGID_12_" gradientUnits="userSpaceOnUse" x1="80.876" x2="443.018" xlink:href="#lg2" y1="472.959" y2="110.817"/><linearGradient id="SVGID_13_" gradientUnits="userSpaceOnUse" x1="236.009" x2="506.849" xlink:href="#lg2" y1="317.982" y2="47.143"/><linearGradient id="SVGID_14_" gradientUnits="userSpaceOnUse" x1="244.156" x2="441.252" xlink:href="#lg1" y1="309.895" y2="112.799"/><linearGradient id="SVGID_15_" gradientUnits="userSpaceOnUse" x1="309.381" x2="429.637" xlink:href="#lg1" y1="244.877" y2="124.62"/><linearGradient id="SVGID_16_" gradientUnits="userSpaceOnUse" x1="82.401" x2="195.585" xlink:href="#lg1" y1="250.907" y2="137.723"/><linearGradient id="SVGID_17_" gradientUnits="userSpaceOnUse" x1="122.751" x2="239.696" xlink:href="#lg1" y1="243.961" y2="127.016"/><linearGradient id="SVGID_18_" gradientUnits="userSpaceOnUse" x1="38.233" x2="163.233" xlink:href="#lg1" y1="260.89" y2="135.89"/><g><circle cx="256" cy="256" fill="url(#SVGID_1_)" r="256"/><circle cx="256" cy="256" fill="url(#SVGID_2_)" r="256"/><path d="m88.136 261.354c.155 45.129 1.464 90.259 3.926 135.389 4.766 1.94 9.871 3.084 15.156 3.243 16.831.511 31.616-9.292 37.885-24.901 9.798-24.455 20.038-49.05 30.526-73.739 2.378-5.597 7.893-9.207 14.018-9.188-33.804-10.336-67.675-20.671-101.511-30.804z" fill="url(#SVGID_3_)"/><path d="m392.493 187.688c1.378 69.977.516 139.956-2.584 209.933 4.63 1.688 9.648 2.521 14.872 2.365 23.246-.736 43.445-20.394 44.578-43.657 2.598-55.943 3.101-111.885 1.509-167.828-19.459-.319-38.917-.59-58.375-.813z" fill="url(#SVGID_4_)"/><path d="m209.882 240.734c-.021 17.921.007 35.842.083 53.763.038 8.476 6.939 15.377 15.396 15.398 10.213.023 20.426.035 30.639.035 0-23.071 0-46.141 0-69.211-15.373 0-30.746.005-46.118.015z" fill="url(#SVGID_5_)"/><path d="m240.627 240.72c-.007 17.942.002 35.886.028 53.829.015 8.49 6.887 15.38 15.345 15.381 10.213 0 20.426-.012 30.639-.035 8.457-.022 15.358-6.92 15.396-15.398.076-17.921.104-35.842.083-53.763-20.497-.014-40.994-.019-61.491-.014z" fill="url(#SVGID_6_)"/><path d="m418.988 357.082c2.315-59.553 2.657-119.105 1.026-178.658-119.53-1.898-239.06-1.721-358.589.531-1.935 59.125-1.529 118.249 1.217 177.374.849 18.007 13.187 33.792 29.422 40.415 10.26-3.664 18.574-11.59 22.802-22.279 9.593-24.277 19.689-48.729 30.095-73.303 2.358-5.57 7.866-9.161 13.99-9.131 54.467.27 108.935.313 163.402.128 6.124-.021 11.641 3.596 14.018 9.188 10.487 24.688 20.727 49.284 30.526 73.739 4.318 10.762 12.713 18.781 23.013 22.536 16.173-6.56 28.359-22.402 29.078-40.54z" fill="url(#SVGID_7_)"/><path d="m317.349 243.302c-40.899-.029-81.798-.029-122.698 0 .032-26.416.203-52.831.515-79.247 40.556-.283 81.112-.283 121.667 0 .312 26.416.484 52.831.516 79.247z" fill="url(#SVGID_8_)"/><path d="m317.07 187.063c-40.713-.209-81.426-.209-122.14 0 .156-17.895.376-35.789.661-53.684 40.272-.381 80.545-.381 120.817 0 .285 17.894.506 35.789.662 53.684z" fill="url(#SVGID_9_)"/><path d="m61.133 188.5c-1.341 45.371 37.08 82.54 83.699 82.817 46.649.181 84.481-37.683 84.642-84.381-.018-46.688-36.655-84.467-81.974-83.412-45.289 1.134-84.905 39.611-86.367 84.976z" fill="url(#SVGID_10_)"/><path d="m61.133 188.5c-1.341 45.371 37.08 82.54 83.699 82.817 46.649.181 84.481-37.683 84.642-84.381-.018-46.688-36.655-84.467-81.974-83.412-45.289 1.134-84.905 39.611-86.367 84.976z" fill="url(#SVGID_11_)"/><path d="m282.527 186.936c.161 46.699 37.992 84.563 84.642 84.381 46.619-.281 85.04-37.442 83.699-82.817-1.463-45.362-41.078-83.841-86.367-84.977-45.319-1.055-81.957 36.723-81.974 83.413z" fill="url(#SVGID_12_)"/><path d="m310.583 187.031c.225 31.1 25.479 56.313 56.619 56.321 31.127-.021 56.379-24.771 55.608-55.278-.803-30.504-26.852-55.99-57.387-56.584-30.547-.571-55.007 24.445-54.84 55.541z" fill="url(#SVGID_13_)"/><path d="m325.887 187.11c.213 22.59 18.615 40.927 41.254 40.987 22.633.049 40.874-17.951 40.366-40.229-.518-22.274-19.34-40.757-41.66-41.126-22.327-.363-40.148 17.784-39.96 40.368z" fill="url(#SVGID_14_)"/><path d="m374.696 212.888c-22.621-.117-41.057-18.474-41.347-41.046-.048-3.506.344-6.91 1.121-10.152-5.446 6.932-8.678 15.774-8.583 25.42.213 22.59 18.615 40.927 41.254 40.987 19.108.051 35.097-12.803 39.293-30.189-7.319 9.175-18.794 15.054-31.738 14.98z" fill="url(#SVGID_15_)"/><path d="m128.673 139.429c-1.037 32.113-1.632 64.228-1.784 96.341-.014 2.799 2.275 5.067 5.104 5.061 8.54-.015 17.081-.029 25.621-.042 2.831-.004 5.129-2.288 5.139-5.104.109-32.279.539-64.557 1.288-96.835.065-2.818-2.139-5.064-4.925-5.022-8.41.127-16.82.271-25.23.432-2.785.053-5.122 2.368-5.213 5.169z" fill="url(#SVGID_16_)"/><path d="m198.981 174.257c-.083 8.524-.153 17.047-.209 25.571-.018 2.821-2.322 5.122-5.144 5.133-10.225.039-20.45.086-30.675.145-5.907-5.912-11.792-11.809-17.65-17.686 6.046-5.987 12.089-11.986 18.124-17.991 10.173-.101 20.346-.186 30.518-.254 2.809-.021 5.063 2.257 5.036 5.082z" fill="url(#SVGID_17_)"/><path d="m145.303 187.42c-6.046 5.988-12.094 11.964-18.138 17.927-10.225.079-20.45.169-30.675.268-2.825.027-5.075-2.208-5.021-4.986.161-8.393.361-16.788.6-25.181.08-2.782 2.425-5.077 5.234-5.125 10.173-.173 20.346-.331 30.519-.471 5.795 5.834 11.624 11.691 17.481 17.568z" fill="url(#SVGID_18_)"/></g></svg>